<svg xmlns="http://www.w3.org/2000/svg" width="56" height="56" viewBox="0 0 56 56"><defs><style>.a{fill:#1c0063;}.b{fill:#dd2127;}.c{fill:#fff;}</style></defs><g transform="translate(-788 -1378)"><circle class="a" cx="28" cy="28" r="28" transform="translate(788 1378)"/><g transform="translate(799 1386)"><path class="b" d="M45.927,70.609h-6.04a.416.416,0,0,1-.387-.387V68.387A.416.416,0,0,1,39.887,68h6.04a.416.416,0,0,1,.387.387v1.836A.381.381,0,0,1,45.927,70.609Z" transform="translate(-25.66 -37.804)"/><g transform="translate(19.026 24.19)"><path class="b" d="M51.89,63.076l-.29-.725A19.722,19.722,0,0,0,59.96,55.2l.677.435A20.4,20.4,0,0,1,51.89,63.076Z" transform="translate(-51.6 -55.2)"/></g><path class="c" d="M13.976,23.872h0a2.14,2.14,0,0,1-2.108-2.17,2.2,2.2,0,0,1,1.211-1.992s4.172-3.586,4.8-11.069c0,0-1.57,10.8,18.078,10.981v.044a2.2,2.2,0,0,1,1.211,1.992,2.132,2.132,0,0,1-2.063,2.17H35.06c-.224,3.188-1.48,6.819-5.114,8.59v2.745a27.784,27.784,0,0,0,12.471,0c-7.626-4.516,1.077-23.91-7.312-31.127C26.761-3.181,24.518,1.512,24.518,1.512s-2.2-4.693-10.587,2.524C8.863,8.375,12.092,29.672,8.1,34.986c3.409,1.683,8.523.974,10.811.354V32.506C15.008,31.089,13.976,23.872,13.976,23.872Z" transform="translate(-8.1 -0.012)"/><g transform="translate(9.62 36.092)"><path class="c" d="M37.549,85.42A12.613,12.613,0,0,1,30.783,83,.826.826,0,1,1,31.8,81.7c.242.193,5.8,4.542,10.341.048a.82.82,0,0,1,1.16,1.16A7.8,7.8,0,0,1,37.549,85.42Z" transform="translate(-30.487 -81.512)"/></g></g></g></svg>