<svg xmlns="http://www.w3.org/2000/svg" width="56" height="56" viewBox="0 0 56 56"><defs><style>.a{fill:#1c0063;}.b{fill:#e11f27;}.c{fill:#fff;}</style></defs><g transform="translate(-1022 -1378)"><circle class="a" cx="28" cy="28" r="28" transform="translate(1022 1378)"/><g transform="translate(1032 1356.92)"><path class="b" d="M101.391,35.935a1.461,1.461,0,0,1,1.491-1.428H121.5a1.461,1.461,0,0,1,1.491,1.428v2.426h1.491V34.508a1.461,1.461,0,0,0-1.491-1.428h-21.6A1.461,1.461,0,0,0,99.9,34.508v3.853h1.491Z" transform="translate(-94.192)"/><path class="c" d="M34.529,125.52H1.471A1.475,1.475,0,0,0,0,127v14.483a1.475,1.475,0,0,0,1.471,1.479H5.878v7.788a1.464,1.464,0,0,0,.478,1.208,1.41,1.41,0,0,0,.595.334,2.328,2.328,0,0,0,.639.055H28.412a2.288,2.288,0,0,0,.639-.055,1.41,1.41,0,0,0,.6-.335,1.466,1.466,0,0,0,.477-1.209V142.96h4.405A1.475,1.475,0,0,0,36,141.481V127A1.475,1.475,0,0,0,34.529,125.52ZM3.674,130.73a1.293,1.293,0,1,1,1.286-1.293A1.29,1.29,0,0,1,3.674,130.73Zm24.979,20.138H7.347V139.191H28.653Z" transform="translate(0 -87.159)"/></g></g></svg>