<svg xmlns="http://www.w3.org/2000/svg" width="56" height="56" viewBox="0 0 56 56"><defs><style>.a{fill:#1c0063;}.b{fill:#dd2026;}.c{fill:#fff;}</style></defs><g transform="translate(-788 -728)"><circle class="a" cx="28" cy="28" r="28" transform="translate(788 728)"/><g transform="translate(796 742)"><path class="b" d="M20.731,269.792A3.606,3.606,0,0,1,16.9,267.2v3.69a1.047,1.047,0,0,0,1.04,1.04h4a1.047,1.047,0,0,0,1.04-1.04v-1.1Z" transform="translate(-15.507 -244.774)"/><path class="b" d="M389.479,270.343H387.2v1.1a1.047,1.047,0,0,0,1.04,1.04h4.012a1.047,1.047,0,0,0,1.04-1.04V267.8A3.6,3.6,0,0,1,389.479,270.343Z" transform="translate(-354.702 -245.325)"/><path class="c" d="M3.17,57.991,4,58c.248-.149.462-.272.619-.363.1-.248.272-.669.487-1.205l-.264-.008a3.738,3.738,0,0,0-.438-1.494c-.545-.611-2.279-.446-2.947-.314-.826.157-1.205.57-1.4,1.552-.083.421-.107,1.42.7,1.61A17.125,17.125,0,0,0,3.17,57.991Z" transform="translate(-0.027 -49.917)"/><path class="c" d="M421.544,55.967c-.19-.974-.57-1.387-1.4-1.552-.669-.132-2.4-.3-2.947.314a3.739,3.739,0,0,0-.438,1.494l-.264.008c.223.537.388.958.487,1.205.157.091.372.215.619.363l.834-.008a14.622,14.622,0,0,0,2.4-.231C421.652,57.379,421.627,56.388,421.544,55.967Z" transform="translate(-381.583 -49.734)"/><path class="c" d="M53.051,12.8a4.361,4.361,0,0,0-1.466-2.917A17.584,17.584,0,0,0,49.114,8.26s-.846-2.171-1.96-4.66c-.762-1.7-1.39-2.59-2.906-2.933A26.8,26.8,0,0,0,39.2.013c-2.236-.084-7.37-.084-9.606,0a26.119,26.119,0,0,0-5.05.654C23.026,1.01,22.4,1.9,21.635,3.6c-1.114,2.5-1.96,4.66-1.96,4.66A17.584,17.584,0,0,0,17.2,9.886,4.305,4.305,0,0,0,15.739,12.8a40.58,40.58,0,0,0,.385,7.233c.285,2.12.62,4.149,3.551,4.149H49.114c2.931,0,3.266-2.028,3.551-4.149A40.579,40.579,0,0,0,53.051,12.8ZM22.1,6.978a15.84,15.84,0,0,1,1.131-2.766A3.112,3.112,0,0,1,25.48,2.343a58.233,58.233,0,0,1,6.834-.469h4.121a58.122,58.122,0,0,1,6.834.469A3.119,3.119,0,0,1,45.5,4.212a16.673,16.673,0,0,1,1.131,2.766s.318.746-1.508.612C42.657,7.4,39.65,7.3,39.65,7.3l-4.807-.059H33.788l-4.7.059s-3.007.1-5.477.293C21.794,7.723,22.1,6.978,22.1,6.978Zm2.228,13.074a2.637,2.637,0,0,1-.3.712,1.749,1.749,0,0,1-1.441.7H20.4c-1,0-1.575-.067-1.968-.6a2.221,2.221,0,0,1-.327-1.618c.1-.335.209-.511,1.281-.461,1.147.05,2.965.142,4.154.226C24.366,19.063,24.491,19.507,24.332,20.052Zm.168-4.827c-.251.7-.9.821-3,.746-2-.075-2.747-.285-3.375-.771a2.747,2.747,0,0,1-.67-2.271.73.73,0,0,1,.737-.729,19.532,19.532,0,0,1,2.219.109,7.638,7.638,0,0,1,2.4.528,3.35,3.35,0,0,1,1.307,1.148A1.6,1.6,0,0,1,24.5,15.224Zm17.337,1.291a12.927,12.927,0,0,1-.846,2.7c-.544,1.257-2.01,1.266-2.831,1.266H30.639c-.821,0-2.295-.008-2.831-1.266a13.087,13.087,0,0,1-.846-2.7c-.243-1-.494-2.053.26-2.9,1.047-1.165,5.745-1.316,5.745-1.316h2.856s4.7.151,5.745,1.316C42.33,14.462,42.079,15.518,41.836,16.515Zm8.509,4.341c-.385.545-.963.6-1.968.6H46.191a1.769,1.769,0,0,1-1.441-.7,2.637,2.637,0,0,1-.3-.712c-.159-.545-.033-.989.787-1.048,1.189-.084,3-.176,4.154-.226,1.08-.05,1.181.126,1.281.461A2.217,2.217,0,0,1,50.346,20.857Zm.318-5.666c-.637.486-1.374.7-3.375.771-2.1.084-2.755-.042-3-.746a1.639,1.639,0,0,1,.377-1.249,3.408,3.408,0,0,1,1.307-1.148,7.733,7.733,0,0,1,2.4-.528,17.592,17.592,0,0,1,2.219-.109.73.73,0,0,1,.737.729A2.757,2.757,0,0,1,50.664,15.191Z" transform="translate(-14.395 0.05)"/></g></g></svg>