<svg xmlns="http://www.w3.org/2000/svg" width="56" height="56" viewBox="0 0 56 56"><defs><style>.a{fill:#1c0063;}.b{fill:#fff;}.c{fill:#db232d;}</style></defs><g transform="translate(-48 -1211)"><circle class="a" cx="28" cy="28" r="28" transform="translate(48 1211)"/><g transform="translate(-1990 685.79)"><path class="b" d="M35.034,17a5.049,5.049,0,1,0-5.9,4.963V27.26a7.474,7.474,0,0,1-14.949,0L14.17,21.2a9.161,9.161,0,0,0,5.569-3.359,1.28,1.28,0,0,0,.283-1.01,18.035,18.035,0,0,0,3.6-10.018c0-4.75-2.128-5.243-5.648-6.049L17.971.751A1.322,1.322,0,0,0,16.788,0a1.342,1.342,0,1,0,0,2.683,1.288,1.288,0,0,0,.79-.3l.031.012c3.417.784,4.339,1,4.339,4.41a16.446,16.446,0,0,1-3.238,8.946,1.287,1.287,0,0,0-.884.428c-1,1.157-2.6,2.543-4.486,2.543S9.857,17.353,8.857,16.2a1.284,1.284,0,0,0-.882-.428A16.487,16.487,0,0,1,4.729,6.808c0-3.415.907-3.627,4.345-4.411l.012-.011a1.331,1.331,0,0,0,.806.3A1.341,1.341,0,1,0,9.891,0a1.364,1.364,0,0,0-1.2.75h0c-3.523.813-5.655,1.3-5.655,6.058A17.964,17.964,0,0,0,6.661,16.843a1.279,1.279,0,0,0,.283,1.01A9.152,9.152,0,0,0,12.491,21.2l0,6.063a9.161,9.161,0,0,0,18.321,0V21.966A5.045,5.045,0,0,0,35.034,17Zm-5.049,3.372a3.367,3.367,0,1,1,3.355-3.371A3.379,3.379,0,0,1,29.985,20.377Z" transform="translate(2046.966 535)"/><path class="c" d="M39.145,19.891a2.571,2.571,0,1,0,2.576,2.568A2.573,2.573,0,0,0,39.145,19.891Z" transform="translate(2037.705 529.55)"/><path class="c" d="M4.25,9.7a.278.278,0,0,0,.4,0L8.2,6.1A2.41,2.41,0,0,0,6.523,2,2.8,2.8,0,0,0,4.448,3.1,2.8,2.8,0,0,0,2.374,2,2.409,2.409,0,0,0,.694,6.1Z" transform="translate(2072.402 535.309)"/></g></g></svg>