<svg xmlns="http://www.w3.org/2000/svg" width="56" height="56" viewBox="0 0 56 56"><defs><style>.a{fill:#1c0063;}.b{fill:#fff;}.c{fill:#e11f27;}</style></defs><g transform="translate(-788 -958)"><circle class="a" cx="28" cy="28" r="28" transform="translate(788 958)"/><g transform="translate(-106 -120)"><g transform="translate(902 1086)"><path class="b" d="M10.414,5.7c2.175-.2,3.942-.408,5.428-.659,4.512-.762,6.335-2.058,8.413-4.7a.889.889,0,0,1,1.35-.057l5.538,5.789a.97.97,0,0,1,.112,1.2,20.36,20.36,0,0,1-2.306,2.846,19.389,19.389,0,0,1-5.006,4.224,6.741,6.741,0,0,1-3.352.883H15.173a3.671,3.671,0,0,1-3.5-2.7.825.825,0,0,1,.694-1.069l.06,0h7.958a.94.94,0,0,0,.933-.914.921.921,0,0,0-.912-.974H11.28a.957.957,0,0,0-.712.34,24.178,24.178,0,0,1-3.466,3.8c-1.374,1.2-4.673,3.409-5.92,3.409a.942.942,0,0,1-.675-1.567L8.78,6.111A.88.88,0,0,1,9.4,5.79l1.014-.09Z" transform="translate(4.158 3.937)"/><path class="b" d="M21.25,251.917c-2.175.2-3.942.408-5.428.659-4.512.762-6.335,2.058-8.413,4.7a.889.889,0,0,1-1.35.057L.521,251.544a.97.97,0,0,1-.112-1.2,20.359,20.359,0,0,1,2.306-2.846,19.389,19.389,0,0,1,5.006-4.224,6.741,6.741,0,0,1,3.352-.883h5.418a3.671,3.671,0,0,1,3.5,2.7.825.825,0,0,1-.694,1.069l-.06,0H11.281a.94.94,0,0,0-.933.914.921.921,0,0,0,.912.974h9.124a.957.957,0,0,0,.712-.34,24.179,24.179,0,0,1,3.466-3.8c1.374-1.2,4.673-3.409,5.92-3.409a.942.942,0,0,1,.675,1.567l-8.273,9.44a.88.88,0,0,1-.62.321l-1.014.09Z" transform="translate(4.178 -222.52)"/><rect class="c" width="2.003" height="13.354" rx="1.002" transform="translate(29.141 1.416) rotate(-45)"/><rect class="c" width="2.003" height="13.354" rx="1.002" transform="translate(0 29.904) rotate(-45)"/></g></g></g></svg>