<svg xmlns="http://www.w3.org/2000/svg" width="13.026" height="16" viewBox="0 0 13.026 16"><defs><style>.a{fill:#1c0063;}.b{fill:#e11f27;}.c{fill:#fff;font-size:4px;font-family:TitilliumWeb-Bold, Titillium Web;font-weight:700;}</style></defs><g transform="translate(-44.806)"><path class="a" d="M119.319,297.84c0-.268-.186-.428-.514-.428a1.139,1.139,0,0,0-.272.026v.86a1.032,1.032,0,0,0,.22.017C119.1,298.315,119.319,298.138,119.319,297.84Z" transform="translate(-71.282 -287.547)"/><path class="a" d="M194.1,297.681a1.358,1.358,0,0,0-.3.026v1.9a1.189,1.189,0,0,0,.229.013.9.9,0,0,0,.985-1.019A.835.835,0,0,0,194.1,297.681Z" transform="translate(-144.058 -287.814)"/><path class="a" d="M53.788,0H47.361a1.705,1.705,0,0,0-1.7,1.7V8h-.166a.686.686,0,0,0-.686.686v4.162a.686.686,0,0,0,.686.686h.166V14.3a1.7,1.7,0,0,0,1.7,1.7H56.13a1.7,1.7,0,0,0,1.7-1.7V4.03ZM46.606,9.437a5.379,5.379,0,0,1,.882-.06,1.384,1.384,0,0,1,.882.231.844.844,0,0,1,.308.668.922.922,0,0,1-.265.685,1.339,1.339,0,0,1-.938.3,1.69,1.69,0,0,1-.223-.013v1.032h-.646Zm9.524,5.52H47.361a.661.661,0,0,1-.66-.66v-.763h8.174a.686.686,0,0,0,.686-.686V8.686A.686.686,0,0,0,54.876,8H46.7V1.7a.66.66,0,0,1,.66-.659L53.4,1.038V3.269A1.181,1.181,0,0,0,54.579,4.45l2.186-.006.025,9.854A.66.66,0,0,1,56.13,14.957ZM49.1,12.272V9.437a5.878,5.878,0,0,1,.882-.06,1.858,1.858,0,0,1,1.182.308,1.277,1.277,0,0,1,.488,1.088,1.463,1.463,0,0,1-.48,1.169,2.072,2.072,0,0,1-1.332.372A5.65,5.65,0,0,1,49.1,12.272Zm4.673-1.678v.531H52.733v1.161h-.655V9.4h1.764v.535H52.733v.66Z" transform="translate(0)"/><rect class="b" width="10.8" height="5.6" rx="0.5" transform="translate(44.806 8)"/><text class="c" transform="translate(46.206 7)"><tspan x="-3.516" y="5">PDF</tspan></text></g></svg>