<svg xmlns="http://www.w3.org/2000/svg" width="56" height="56" viewBox="0 0 56 56"><defs><style>.a{fill:#1c0063;}.b{fill:#fff;}.c{fill:#e11f27;}</style></defs><g transform="translate(48 -1189)"><circle class="a" cx="28" cy="28" r="28" transform="translate(-48 1189)"/><g transform="translate(-36 1197)"><path class="b" d="M184,320h1.36v1.36H184Zm0,0" transform="translate(-168.68 -293.352)"/><path class="b" d="M184,192h1.36v1.36H184Zm0,0" transform="translate(-168.68 -176.011)"/><path class="b" d="M120,256h1.36v1.36H120Zm0,0" transform="translate(-110.009 -234.682)"/><path class="b" d="M248,128h1.36v1.36H248Zm0,0" transform="translate(-227.352 -117.341)"/><path class="b" d="M184,256h1.36v1.36H184Zm0,0" transform="translate(-168.68 -234.682)"/><path class="b" d="M248,192h1.36v1.36H248Zm0,0" transform="translate(-227.352 -176.011)"/><path class="b" d="M120,128h1.36v1.36H120Zm0,0" transform="translate(-110.009 -117.341)"/><path class="b" d="M120,64h1.36v1.36H120Zm0,0" transform="translate(-110.009 -58.558)"/><path class="b" d="M248,256h1.36v1.36H248Zm0,0" transform="translate(-227.352 -234.682)"/><path class="b" d="M120,192h1.36v1.36H120Zm0,0" transform="translate(-110.009 -176.011)"/><path class="b" d="M120,320h1.36v1.36H120Zm0,0" transform="translate(-110.009 -293.352)"/><path class="b" d="M184,128h1.36v1.36H184Zm0,0" transform="translate(-168.68 -117.341)"/><path class="b" d="M184,64h1.36v1.36H184Zm0,0" transform="translate(-168.68 -58.558)"/><path class="b" d="M248,64h1.36v1.36H248Zm0,0" transform="translate(-227.352 -58.558)"/><path class="b" d="M248,320h1.36v1.36H248Zm0,0" transform="translate(-227.352 -293.352)"/><path class="b" d="M24.667,66.6V32H7.333V66.6H0v1.331H32V66.6ZM19.333,34A.666.666,0,0,1,20,33.331h2.667a.666.666,0,0,1,.667.665v2.662a.666.666,0,0,1-.667.665H20a.666.666,0,0,1-.667-.665Zm0,5.324A.666.666,0,0,1,20,38.655h2.667a.666.666,0,0,1,.667.665v2.662a.666.666,0,0,1-.667.665H20a.666.666,0,0,1-.667-.665Zm0,5.324A.666.666,0,0,1,20,43.978h2.667a.666.666,0,0,1,.667.665v2.662a.666.666,0,0,1-.667.665H20a.666.666,0,0,1-.667-.665Zm0,5.324A.666.666,0,0,1,20,49.3h2.667a.666.666,0,0,1,.667.665v2.662a.666.666,0,0,1-.667.665H20a.666.666,0,0,1-.667-.665Zm0,5.324A.666.666,0,0,1,20,54.626h2.667a.666.666,0,0,1,.667.665v2.662a.666.666,0,0,1-.667.665H20a.666.666,0,0,1-.667-.665ZM14,34a.666.666,0,0,1,.667-.665h2.667A.666.666,0,0,1,18,34v2.662a.666.666,0,0,1-.667.665H14.667A.666.666,0,0,1,14,36.658Zm0,5.324a.666.666,0,0,1,.667-.665h2.667A.666.666,0,0,1,18,39.32v2.662a.666.666,0,0,1-.667.665H14.667A.666.666,0,0,1,14,41.982Zm0,5.324a.666.666,0,0,1,.667-.665h2.667a.666.666,0,0,1,.667.665v2.662a.666.666,0,0,1-.667.665H14.667A.666.666,0,0,1,14,47.306Zm0,5.324a.666.666,0,0,1,.667-.665h2.667a.666.666,0,0,1,.667.665v2.662a.666.666,0,0,1-.667.665H14.667A.666.666,0,0,1,14,52.629Zm0,5.324a.666.666,0,0,1,.667-.665h2.667a.666.666,0,0,1,.667.665v2.662a.666.666,0,0,1-.667.665H14.667A.666.666,0,0,1,14,57.953ZM8.667,34a.666.666,0,0,1,.667-.665H12a.666.666,0,0,1,.667.665v2.662a.666.666,0,0,1-.667.665H9.333a.666.666,0,0,1-.667-.665Zm0,5.324a.666.666,0,0,1,.667-.665H12a.666.666,0,0,1,.667.665v2.662a.666.666,0,0,1-.667.665H9.333a.666.666,0,0,1-.667-.665Zm0,5.324a.666.666,0,0,1,.667-.665H12a.666.666,0,0,1,.667.665v2.662a.666.666,0,0,1-.667.665H9.333a.666.666,0,0,1-.667-.665Zm0,5.324a.666.666,0,0,1,.667-.665H12a.666.666,0,0,1,.667.665v2.662a.666.666,0,0,1-.667.665H9.333a.666.666,0,0,1-.667-.665Zm0,5.324a.666.666,0,0,1,.667-.665H12a.666.666,0,0,1,.667.665v2.662a.666.666,0,0,1-.667.665H9.333a.666.666,0,0,1-.667-.665ZM19.333,66.6V61.28H16.667V66.6H15.333V61.28H12.667V66.6H11.333V60.615A.666.666,0,0,1,12,59.949h8a.666.666,0,0,1,.667.665V66.6Zm0,0" transform="translate(0 -29.279)"/><path class="c" d="M72,0H91.756V1.36H72Zm0,0" transform="translate(-65.878)"/><path class="c" d="M72,0h32V1.36H72Zm0,0" transform="translate(-72 37.295)"/><rect class="c" width="3" height="7" transform="translate(12.32 31.656)"/><rect class="c" width="3" height="7" transform="translate(16.68 31.656)"/></g></g></svg>